<svg id="Layer_1" data-name="Layer 1" xmlns="http://www.w3.org/2000/svg" viewBox="0 0 343.84 221.57"><defs><style>.cls-1{fill:#373435;}.cls-2{fill:#fefefe;}.cls-3{fill:#b4b2b4;}.cls-4{fill:#636061;}.cls-5{fill:#4c4a4b;}.cls-6{fill:#dbdbdb;}</style></defs><title>logo</title><path class="cls-1" d="M119.76,236.64H117.6c-2-.35-4-.21-5.92-.61a47.72,47.72,0,0,1-18.07-8c-16.09-11.37-25.5-27.1-30-46a56.47,56.47,0,0,1-1.28-12.48c0-.43,0-.85,0-1.27q0-75.58,0-151.16c0-1.7,0-1.71,1.68-1.71h81.46c2.05,0,2.06,0,2.06,2q0,76.9,0,153.8a14.93,14.93,0,0,0,.37,3.69,17.47,17.47,0,0,0,1.17,4.27,2.68,2.68,0,0,0,1.68,1.61,10.33,10.33,0,0,0,3.76.63H308c.76,0,1.52,0,2.28,0a1.43,1.43,0,0,1,1.52,1.5c0,.36,0,.72,0,1.08q0,25.25,0,50.5c0,.74.17,1.54-.51,2.13H121.68A3.21,3.21,0,0,0,119.76,236.64Z" transform="translate(-62.14 -15.1)"/><path class="cls-2" d="M311.28,236.64c0-.36,0-.72,0-1.08q0-26.21,0-52.42c0-1.07-.26-1.3-1.31-1.3q-77.79,0-155.58,0a11.84,11.84,0,0,1-3.67-.41,3.48,3.48,0,0,1-2.45-2.41,18.55,18.55,0,0,1-1-4.06,4.92,4.92,0,0,1-.08-1.55q0-78.14,0-156.28c0-1.91.25-1.68-1.62-1.68h-82a2.88,2.88,0,0,1-1.41-.11c.05-.07-.12-.25.12-.24h1q170.72,0,341.45,0c.95,0,1.18.15,1.18,1.15q0,109.66-.06,219.31c0,.31.59,1.11-.45,1.08a2.68,2.68,0,0,1-.27-.34,2.46,2.46,0,0,1-.24-1.28c0-.68,0-1.36,0-2q0-107.21,0-214.42c0-2.86.19-2.69-2.65-2.69-19.84,0-39.68,0-59.52,0a3.47,3.47,0,0,0-3.45,2.08C336.18,23.3,333,28.63,329.9,34q-6.57,11.23-13.12,22.46-7.08,12.11-14.14,24.23-6.95,11.91-13.87,23.83c-.64,1.1-1.25,2.23-1.94,3.31-.92,1.42-1.7,1.43-2.6,0q-2.53-3.93-5-7.89c-4.36-6.93-8.77-13.84-13.15-20.76Q254.2,60.45,242.31,41.73q-7.74-12.2-15.45-24.41a2.84,2.84,0,0,0-2.73-1.48q-30.48,0-61,0c-1.81,0-1.87.06-1.87,1.91q0,75.35,0,150.71c0,1.82.06,1.88,1.9,1.88h50.4c1.83,0,1.88-.06,1.88-1.89q0-30.36,0-60.72c0-.56,0-1.12,0-1.68s-.06-1.24.6-1.42.88.42,1.18.84c.73,1,1.35,2.08,2,3.13,5.84,9.45,11.74,18.86,17.6,28.3,6.47,10.42,13,20.82,19.42,31.26a2.77,2.77,0,0,1,.19.31c.67,1.5,1.81,1.91,3.45,1.91q24.48-.09,49,0a3.46,3.46,0,0,0,3.41-2c7-11.86,14.15-23.66,21.24-35.48q7.34-12.23,14.69-24.46c.39-.64.74-1.62,1.58-1.4s.61,1.28.61,2q0,50.76,0,101.51,0,11.94,0,23.88a3.4,3.4,0,0,1-.25,1.85,2.84,2.84,0,0,1-.26.31Z" transform="translate(-62.14 -15.1)"/><path class="cls-2" d="M62.36,169.69c1.4,19.52,8.68,36.46,22.5,50.39,6.54,6.6,14.1,11.75,23.11,14.5a50.67,50.67,0,0,0,8.91,1.8c.25,0,.58-.1.72.26q-27.24,0-54.48,0c-.82,0-1-.16-1-1q0-33,0-66Q62.27,169.44,62.36,169.69Z" transform="translate(-62.14 -15.1)"/><path class="cls-3" d="M62.16,15.36c.52,0,1,0,1.56,0h81.94c1.7,0,1.71,0,1.71,1.68q0,77.8,0,155.61c0,.8,0,1.6,0,2.39a4.51,4.51,0,0,1-.19-2.12q0-77.81,0-155.62c0-1.94.29-1.71-1.72-1.72H64.06c-1.93,0-1.65-.2-1.65,1.66q0,75.23,0,150.46c0,.28,0,.56,0,.84-.07.12-.14.13-.2,0Z" transform="translate(-62.14 -15.1)"/><path class="cls-4" d="M405.31,236.39l0,.25H349.92v-.24a1.47,1.47,0,0,1,1.17-.5l.84,0q25.69,0,51.38,0C404,235.89,404.77,235.72,405.31,236.39Z" transform="translate(-62.14 -15.1)"/><path class="cls-5" d="M119.76,236.64a1.83,1.83,0,0,1,1.92,0Z" transform="translate(-62.14 -15.1)"/><path class="cls-6" d="M62.16,168.48h.2v1.2h-.2Z" transform="translate(-62.14 -15.1)"/><path class="cls-1" d="M405.31,236.39H349.92c0-.52-.06-1-.06-1.55q0-63.11,0-126.23V107.2c-.55.26-.68.75-.9,1.12q-18.39,30.6-36.73,61.22a2.34,2.34,0,0,1-2.33,1.34q-25.68-.07-51.36,0a1.91,1.91,0,0,1-1.88-1.07q-19.84-32-39.73-63.9c-.22-.36-.46-.7-.9-1.37v1.63q0,31.68,0,63.35c0,1.12-.32,1.36-1.39,1.35q-26.28-.05-52.56,0c-1.11,0-1.36-.29-1.36-1.37q0-76.37,0-152.75c0-1.22.36-1.39,1.46-1.39q31.38.05,62.75,0a2,2,0,0,1,2,1.11q28.91,45.66,57.86,91.29l.65,1c.46-.18.55-.61.74-.94q26.59-45.57,53.15-91.16a2.22,2.22,0,0,1,2.22-1.29q31.2.06,62.39,0c1,0,1.41.14,1.41,1.32q-.05,109.31,0,218.62C405.35,235.67,405.33,236,405.31,236.39Z" transform="translate(-62.14 -15.1)"/></svg>